<svg width="183" height="41" viewBox="0 0 183 41" fill="none" xmlns="http://www.w3.org/2000/svg">
<path d="M46.7341 0L44.7017 7.39477H20.1793L17.7256 16.6366H39.166L37.3405 23.474H15.974L11.5617 40.0004H0.630859L11.1405 0H46.7341Z" fill="#E00209"/>
<path d="M67.8271 0L57.177 39.994H47.2957L57.8792 0H67.8271Z" fill="#E00209"/>
<path d="M73.5402 21.0114C74.4714 18.8857 75.8091 17.0256 77.5607 15.4249C79.3123 13.8241 81.4335 12.5668 83.9315 11.64C86.4296 10.7132 89.2454 10.2531 92.3791 10.2531C94.7885 10.2531 97.0057 10.4993 99.0234 10.9854C101.041 11.478 102.785 12.2103 104.241 13.1954C105.697 14.174 106.821 15.4119 107.611 16.9025C108.41 18.3931 108.801 20.1559 108.801 22.191C108.801 24.6602 108.336 26.9804 107.404 29.1385C106.473 31.3032 105.121 33.1827 103.347 34.777C101.573 36.3778 99.4299 37.6286 96.9096 38.5359C94.3894 39.4433 91.5144 39.8969 88.2846 39.8969C83.3772 39.8969 79.4601 38.8859 76.526 36.8703C73.5919 34.8547 72.1285 31.8281 72.1285 27.797C72.1433 25.399 72.6089 23.1372 73.5402 21.0114ZM81.5221 29.9227C81.8252 30.7069 82.2834 31.4004 82.8894 31.9966C83.4955 32.5929 84.2419 33.0725 85.1288 33.4225C86.0157 33.7789 87.043 33.9539 88.2107 33.9539C90.0806 33.9539 91.677 33.5521 93.0073 32.7484C94.3376 31.9448 95.4389 30.9403 96.3036 29.7218C97.1683 28.5099 97.8113 27.1943 98.2326 25.7749C98.6538 24.3556 98.8608 23.027 98.8608 21.7956C98.8608 19.8578 98.3138 18.3024 97.2126 17.1488C96.1114 15.9887 94.2342 15.4119 91.5735 15.4119C89.748 15.4119 88.1738 15.8137 86.8435 16.6173C85.5131 17.421 84.4267 18.4191 83.5842 19.6115C82.7416 20.8105 82.1134 22.1067 81.6921 23.5066C81.2709 24.9065 81.0639 26.2221 81.0639 27.4535C81.0713 28.3219 81.2191 29.1385 81.5221 29.9227Z" fill="#E00209"/>
<path d="M133.05 11.037L125.342 40.0004H115.394L123.028 11.037H133.05Z" fill="#E00209"/>
<path d="M152.384 15.2628C153.456 14.0509 154.764 13.0723 156.309 12.3205C157.854 11.5752 159.576 11.0437 161.49 10.7262C163.404 10.4086 165.392 10.2531 167.447 10.2531C169.08 10.2531 170.787 10.3438 172.561 10.5317C174.335 10.7197 175.968 11.0826 177.469 11.627C178.961 12.1714 180.188 12.9362 181.149 13.9213C182.103 14.9129 182.561 16.2285 182.516 17.8682C182.516 19.2486 182.258 20.8753 181.748 22.7419L178.525 34.3946C178.341 34.9196 178.208 35.5612 178.141 36.3259C178.075 37.0907 178.038 37.7517 178.038 38.3156C178.038 38.8017 178.156 39.359 178.385 39.9942H168.437V37.136C167.085 38.3674 165.422 39.2748 163.463 39.8516C161.505 40.4284 159.472 40.72 157.366 40.72C155.407 40.72 153.685 40.5126 152.215 40.1043C150.744 39.696 149.517 39.1451 148.534 38.4517C147.551 37.7582 146.827 36.9611 146.361 36.0408C145.895 35.127 145.659 34.1613 145.659 33.1567C145.659 30.357 146.864 28.1146 149.266 26.436C151.668 24.7574 155.067 23.7075 159.457 23.2992C161.793 23.0789 163.825 22.9104 165.555 22.7937C167.284 22.6835 168.718 22.5021 169.864 22.2623C171.009 22.0225 171.859 21.666 172.421 21.1994C172.982 20.7328 173.263 20.0328 173.263 19.0996C173.263 18.3542 173.056 17.758 172.635 17.3043C172.214 16.8571 171.689 16.5007 171.061 16.2415C170.433 15.9822 169.753 15.8007 169.028 15.71C168.304 15.6193 167.617 15.5674 166.959 15.5674C165.185 15.5674 163.596 15.9109 162.192 16.6044C160.788 17.2978 159.923 18.3672 159.598 19.8254H150.278C150.611 17.9978 151.313 16.4812 152.384 15.2628ZM167.24 27.1943C165.791 27.3239 164.343 27.4276 162.894 27.5054C161.955 27.5831 161.046 27.6998 160.16 27.8683C159.273 28.0368 158.489 28.2895 157.809 28.6266C157.129 28.9636 156.582 29.4237 156.161 30.0005C155.74 30.5773 155.533 31.3162 155.533 32.2105C155.533 33.2928 156.08 34.103 157.181 34.6474C158.275 35.1918 159.553 35.4575 161.002 35.4575C162.547 35.4575 163.84 35.2631 164.89 34.8677C165.939 34.4789 166.826 33.9733 167.55 33.3577C168.275 32.742 168.844 32.042 169.265 31.2578C169.686 30.4736 170.034 29.6894 170.314 28.9052L171.297 26.1055C170.041 26.7017 168.688 27.0646 167.24 27.1943Z" fill="#E00209"/>
<path d="M142.931 12.1388C142.673 11.6722 142.325 11.2704 141.926 10.9593C141.527 10.6417 141.061 10.4084 140.574 10.2594C139.672 9.98715 138.674 10.0196 137.758 10.4084C137.676 10.4408 137.603 10.4797 137.529 10.5186C136.745 10.9074 136.206 11.3352 135.703 11.899C135.171 12.4953 134.691 13.2406 134.025 14.2516C133.937 14.3877 133.848 14.5238 133.752 14.6664C133.212 15.483 132.673 16.2024 132.222 16.7662C131.956 17.0968 131.727 17.3754 131.55 17.5828C131.372 17.7902 131.247 17.9263 131.202 17.9782C131.187 17.9911 131.18 17.9976 131.18 18.0041C131.173 17.9976 131.173 18.0041 131.165 18.0041V18.0106H131.158V18.017C131.158 18.017 131.158 18.017 131.165 18.0235L131.173 18.03C131.165 18.043 131.158 18.0559 131.165 18.0559C131.15 18.0559 131.21 18.043 131.21 18.043C131.21 18.043 131.357 18.0235 131.623 17.9911C131.912 17.9587 132.326 17.9198 132.843 17.8939C133.589 17.855 134.535 17.8421 135.563 17.9134C135.799 17.9328 136.028 17.9458 136.243 17.9587C137.603 18.0365 138.534 18.043 139.295 17.9393C140.041 17.8356 140.625 17.6347 141.291 17.3041C141.364 17.2653 141.438 17.2264 141.512 17.181C142.37 16.682 142.961 15.9172 143.234 15.0553C143.382 14.5886 143.441 14.0961 143.397 13.597C143.338 13.098 143.19 12.6055 142.931 12.1388Z" fill="#E00209"/>
</svg>
